<svg xmlns="http://www.w3.org/2000/svg" xmlns:xlink="http://www.w3.org/1999/xlink" width="30" height="30" viewBox="0 0 30 30">
    <defs>
        <path id="a" d="M0 .008h29.989v28.375H0z"/>
    </defs>
    <g fill="none" fill-rule="evenodd">
        <path fill="#F24040" d="M11 14h2l-1-2z"/>
        <g transform="translate(0 1)">
            <mask id="b" fill="#fff">
                <use xlink:href="#a"/>
            </mask>
            <path fill="#F24040" d="M25.984 15.565a.885.885 0 0 1-.336.585.851.851 0 0 1-1.211-.174l-2.03-2.756-.3.308v1.935c0 .49-.387.887-.865.887a.877.877 0 0 1-.865-.887V9.395c0-.489.388-.886.865-.886s.865.397.865.886v1.907l2.414-2.475A.663.663 0 0 1 25 8.63c.216 0 .432.095.595.262a.884.884 0 0 1 .254.562c.013.21-.055.401-.19.54l-1.972 2.021 2.13 2.893a.896.896 0 0 1 .166.657zm-6.772.668h-2.776a.822.822 0 0 1-.829-.814V9.395c0-.489.396-.886.883-.886s.883.397.883.886v5.211h1.839c.457 0 .829.365.829.813a.822.822 0 0 1-.83.814zm-4.372-.005c-.173.08-.36.122-.55.122-.361 0-.637-.15-.72-.391l-.429-1.15h-2.637l-.429 1.15c-.083.241-.359.391-.72.391-.19 0-.377-.041-.55-.122-.238-.113-.467-.423-.204-1.26l2.069-5.584c.146-.425.588-.862 1.152-.875.565.013 1.008.45 1.154.876l2.068 5.582c.263.838.034 1.149-.204 1.261zm-7.27-.713a.857.857 0 0 1-.866.847.857.857 0 0 1-.865-.847v-5.27H4.49a.86.86 0 0 1-.849-.868.86.86 0 0 1 .85-.868h4.43a.86.86 0 0 1 .848.868.86.86 0 0 1-.849.868H7.57v5.27zM14.993.008C6.714.008 0 5.436 0 12.13c0 4.329 2.807 8.126 7.028 10.27-.23.813-1.476 5.226-1.525 5.572 0 0-.03.26.134.36.165.1.358.022.358.022.472-.067 5.471-3.667 6.336-4.292.865.125 1.755.19 2.663.19 8.282 0 14.995-5.427 14.995-12.122 0-6.694-6.713-12.122-14.995-12.122z" mask="url(#b)"/>
        </g>
    </g>
</svg>
