<svg xmlns="http://www.w3.org/2000/svg" xmlns:xlink="http://www.w3.org/1999/xlink" width="100" height="108" viewBox="0 0 100 108">
    <defs>
        <path id="a" d="M0 0h99.897v107.034H0z"/>
    </defs>
    <g fill="none" fill-rule="evenodd">
        <g>
            <mask id="b" fill="#fff">
                <use xlink:href="#a"/>
            </mask>
            <path fill="#F24040" d="M84.223 15.675C74.115 5.567 60.675 0 46.38 0 32.086 0 18.646 5.567 8.539 15.675a54.089 54.089 0 0 0-6.938 8.51A10.65 10.65 0 0 0 0 29.816C0 35.728 4.792 40.52 10.703 40.52c.211 0 .42-.007.628-.02.065-.003.13-.01.194-.014a10.493 10.493 0 0 0 1.064-.135l.192-.034c.185-.037.37-.077.551-.123l.04-.01c.195-.05.387-.106.578-.167.058-.018.115-.039.173-.058a10.604 10.604 0 0 0 .968-.38c.058-.026.117-.052.175-.08.158-.074.313-.152.466-.233l.063-.032c.173-.094.342-.193.51-.296l.145-.093a10.91 10.91 0 0 0 .838-.593l.153-.12c.127-.104.253-.21.376-.32l.07-.06c.144-.132.285-.267.422-.406.039-.039.076-.08.114-.12.098-.102.194-.205.288-.31l.134-.155c.087-.102.171-.205.254-.31.04-.05.082-.102.121-.154.097-.126.19-.255.28-.386l.044-.06.024-.035-.013.02-.01.015a32.606 32.606 0 0 1 4.13-5.038 32.953 32.953 0 0 1 3.295-2.885c-7.007 6.297-11.415 15.428-11.415 25.59 0 10.162 4.408 19.293 11.415 25.59a32.974 32.974 0 0 1-3.295-2.885 32.614 32.614 0 0 1-4.13-5.039l.01.016.013.02-.024-.035-.044-.06c-.09-.131-.183-.26-.28-.386a10.885 10.885 0 0 0-.375-.464l-.134-.155c-.094-.106-.19-.209-.288-.31-.038-.04-.075-.082-.114-.12a10.872 10.872 0 0 0-.422-.406l-.07-.06a10.89 10.89 0 0 0-.376-.32c-.05-.041-.102-.08-.153-.12a10.837 10.837 0 0 0-.838-.593l-.146-.094a10.925 10.925 0 0 0-.51-.295l-.062-.032c-.153-.082-.308-.16-.466-.234-.058-.028-.117-.053-.175-.08a10.482 10.482 0 0 0-.968-.38c-.058-.019-.115-.04-.173-.058-.19-.06-.383-.117-.578-.167l-.04-.01a10.77 10.77 0 0 0-.551-.122c-.064-.013-.128-.023-.192-.034a10.54 10.54 0 0 0-1.064-.135l-.194-.015c-.208-.012-.417-.02-.628-.02C4.792 66.514 0 71.306 0 77.218c0 2.066.587 3.994 1.601 5.63a54.089 54.089 0 0 0 6.937 8.51c10.108 10.109 23.548 15.676 37.843 15.676 14.294 0 27.734-5.567 37.842-15.675C94.33 81.25 99.897 67.812 99.897 53.517c0-14.295-5.566-27.734-15.674-37.842" mask="url(#b)"/>
        </g>
        <path fill="#FFF" d="M71.423 61.872c-.136 0-.27.005-.403.013l-.125.01a7.145 7.145 0 0 0-.685.086l-.123.022c-.119.024-.237.05-.354.08l-.026.005a6.89 6.89 0 0 0-.371.108l-.112.037a6.903 6.903 0 0 0-.622.244l-.113.052a6.754 6.754 0 0 0-.299.15l-.04.02c-.111.06-.22.124-.328.19l-.093.06c-.076.049-.151.099-.225.15l-.108.076c-.07.05-.139.103-.206.156-.033.025-.066.05-.098.077a6.765 6.765 0 0 0-.242.206l-.045.039a6.805 6.805 0 0 0-.271.26l-.074.077a6.927 6.927 0 0 0-.434.498c-.026.033-.053.066-.078.1a6.825 6.825 0 0 0-.18.247l-.029.039c-.004.008-.01.015-.015.023l.008-.013.007-.01a20.972 20.972 0 0 1-2.655 3.239c-1.95 1.95-4.2 3.46-6.69 4.492a20.551 20.551 0 0 1-7.907 1.554 20.55 20.55 0 0 1-7.906-1.554 20.55 20.55 0 0 1-6.69-4.492c-1.95-1.95-3.46-4.2-4.492-6.69a20.551 20.551 0 0 1-1.554-7.906c0-2.757.523-5.417 1.554-7.907a20.552 20.552 0 0 1 4.492-6.69c1.95-1.949 4.2-3.46 6.69-4.491a20.547 20.547 0 0 1 7.906-1.554c2.757 0 5.418.522 7.907 1.554a20.549 20.549 0 0 1 6.69 4.492 20.98 20.98 0 0 1 2.655 3.24v-.001l-.007-.01-.008-.013.016.022c.008.014.018.026.028.04.058.083.118.166.18.247.025.034.052.067.078.1a6.987 6.987 0 0 0 .434.498l.074.077c.088.09.178.176.27.26l.046.039c.079.07.16.14.242.206l.098.077a6.403 6.403 0 0 0 .539.381l.093.06c.108.066.217.13.328.19l.04.02c.098.053.198.103.3.151.037.018.075.034.112.051a6.876 6.876 0 0 0 .622.244l.112.038c.122.039.246.075.37.107l.027.006c.117.03.235.056.354.08l.123.022a6.776 6.776 0 0 0 .685.086l.125.01a6.88 6.88 0 0 0 6.255-10.487 34.776 34.776 0 0 0-4.46-5.471c-6.498-6.5-15.138-10.078-24.328-10.078S30.658 22.692 24.16 29.19c-6.498 6.498-10.076 15.137-10.076 24.327 0 9.19 3.578 17.829 10.076 24.327 6.498 6.498 15.138 10.076 24.327 10.076 9.19 0 17.83-3.578 24.328-10.076a34.776 34.776 0 0 0 4.238-5.137c.075-.111.148-.223.221-.334a6.88 6.88 0 0 0-5.852-10.5"/>
    </g>
</svg>
